<?xml version="1.0" encoding="utf-8"?>
<!-- Generator: Adobe Illustrator 18.1.1, SVG Export Plug-In . SVG Version: 6.00 Build 0)  -->
<svg version="1.1" id="Layer_1" xmlns:sketch="http://www.bohemiancoding.com/sketch/ns"
	 xmlns="http://www.w3.org/2000/svg" xmlns:xlink="http://www.w3.org/1999/xlink" x="0px" y="0px" viewBox="-219.5 376.6 173 40.9"
	 enable-background="new -219.5 376.6 173 40.9" xml:space="preserve">
<title>btn-sign-in-with-slack</title>
<desc>Created with Sketch.</desc>
<g id="Handoff-01" sketch:type="MSPage">
	<g id="btn-sign-in-with-slack" sketch:type="MSLayerGroup">
		<path id="Mask-Copy-10" sketch:type="MSShapeGroup" fill="#FFFFFF" stroke="#C7CACD" d="M-213,377h160c3.3,0,6,2.7,6,6v28
			c0,3.3-2.7,6-6,6h-160c-3.3,0-6-2.7-6-6v-28C-219,379.7-216.3,377-213,377z"/>
		<path id="Sign-in-with-Slack" sketch:type="MSShapeGroup" fill="#393A3F" d="M-172.1,393.5c-0.1,0.1-0.1,0.2-0.2,0.2
			c-0.1,0-0.2,0.1-0.3,0.1c-0.1,0-0.2,0-0.4-0.1c-0.1-0.1-0.3-0.2-0.5-0.3c-0.2-0.1-0.4-0.2-0.6-0.3c-0.2-0.1-0.5-0.1-0.8-0.1
			c-0.3,0-0.5,0-0.8,0.1c-0.2,0.1-0.4,0.2-0.5,0.3s-0.3,0.3-0.3,0.4c-0.1,0.2-0.1,0.4-0.1,0.6c0,0.3,0.1,0.5,0.2,0.7
			c0.1,0.2,0.3,0.3,0.6,0.4c0.2,0.1,0.5,0.2,0.8,0.3s0.6,0.2,1,0.3s0.6,0.2,1,0.4c0.3,0.1,0.6,0.3,0.8,0.6c0.2,0.2,0.4,0.5,0.6,0.8
			s0.2,0.7,0.2,1.2c0,0.5-0.1,1-0.3,1.4c-0.2,0.4-0.4,0.8-0.8,1.2c-0.3,0.3-0.7,0.6-1.2,0.8c-0.5,0.2-1,0.3-1.7,0.3
			c-0.4,0-0.7,0-1.1-0.1c-0.3-0.1-0.7-0.2-1-0.3c-0.3-0.1-0.6-0.3-0.9-0.5c-0.3-0.2-0.5-0.4-0.7-0.6l0.6-1c0.1-0.1,0.1-0.1,0.2-0.2
			c0.1,0,0.2-0.1,0.3-0.1c0.1,0,0.3,0.1,0.4,0.2c0.1,0.1,0.3,0.2,0.5,0.4c0.2,0.1,0.4,0.2,0.7,0.4c0.3,0.1,0.6,0.2,1,0.2
			c0.6,0,1.1-0.1,1.4-0.4s0.5-0.7,0.5-1.2c0-0.3-0.1-0.5-0.2-0.7s-0.3-0.3-0.6-0.5c-0.2-0.1-0.5-0.2-0.8-0.3s-0.6-0.2-0.9-0.3
			c-0.3-0.1-0.6-0.2-0.9-0.4c-0.3-0.1-0.6-0.3-0.8-0.6c-0.2-0.2-0.4-0.5-0.6-0.9s-0.2-0.8-0.2-1.3c0-0.4,0.1-0.8,0.2-1.2
			c0.2-0.4,0.4-0.7,0.7-1c0.3-0.3,0.7-0.5,1.1-0.7c0.5-0.2,1-0.3,1.6-0.3c0.7,0,1.3,0.1,1.8,0.3c0.6,0.2,1,0.5,1.4,0.9L-172.1,393.5
			z M-167.9,394.7v8h-1.9v-8H-167.9z M-167.7,392.4c0,0.2,0,0.3-0.1,0.5c-0.1,0.1-0.2,0.3-0.3,0.4c-0.1,0.1-0.2,0.2-0.4,0.3
			c-0.1,0.1-0.3,0.1-0.5,0.1c-0.2,0-0.3,0-0.5-0.1c-0.1-0.1-0.3-0.2-0.4-0.3c-0.1-0.1-0.2-0.2-0.3-0.4c-0.1-0.1-0.1-0.3-0.1-0.5
			c0-0.2,0-0.3,0.1-0.5c0.1-0.1,0.2-0.3,0.3-0.4c0.1-0.1,0.2-0.2,0.4-0.3c0.1-0.1,0.3-0.1,0.5-0.1c0.2,0,0.3,0,0.5,0.1
			c0.1,0.1,0.3,0.2,0.4,0.3s0.2,0.2,0.3,0.4C-167.7,392.1-167.7,392.3-167.7,392.4L-167.7,392.4z M-163.1,398.5c0.2,0,0.4,0,0.6-0.1
			c0.2-0.1,0.3-0.2,0.4-0.3c0.1-0.1,0.2-0.3,0.3-0.4c0.1-0.2,0.1-0.3,0.1-0.5c0-0.4-0.1-0.7-0.4-0.9c-0.2-0.2-0.6-0.3-1.1-0.3
			s-0.8,0.1-1.1,0.3c-0.2,0.2-0.4,0.5-0.4,0.9c0,0.2,0,0.4,0.1,0.5c0.1,0.2,0.1,0.3,0.3,0.4c0.1,0.1,0.3,0.2,0.4,0.3
			C-163.5,398.5-163.3,398.5-163.1,398.5L-163.1,398.5z M-160.9,403.1c0-0.2,0-0.3-0.1-0.4s-0.2-0.2-0.4-0.2
			c-0.2-0.1-0.3-0.1-0.6-0.1c-0.2,0-0.4,0-0.7-0.1c-0.2,0-0.5,0-0.7,0c-0.3,0-0.5,0-0.7-0.1c-0.2,0.1-0.4,0.3-0.5,0.4
			c-0.1,0.2-0.2,0.3-0.2,0.6c0,0.1,0,0.3,0.1,0.4c0.1,0.1,0.2,0.2,0.3,0.3s0.4,0.2,0.6,0.2c0.2,0,0.5,0.1,0.9,0.1
			c0.4,0,0.7,0,0.9-0.1c0.3-0.1,0.5-0.1,0.6-0.2s0.3-0.2,0.4-0.3S-160.9,403.2-160.9,403.1L-160.9,403.1z M-159,395v0.7
			c0,0.2-0.1,0.4-0.4,0.4l-0.7,0.1c0.1,0.3,0.2,0.6,0.2,0.9c0,0.4-0.1,0.7-0.2,1.1c-0.2,0.3-0.4,0.6-0.7,0.8c-0.3,0.2-0.6,0.4-1,0.5
			c-0.4,0.1-0.8,0.2-1.2,0.2c-0.2,0-0.3,0-0.4,0s-0.3,0-0.4-0.1c-0.2,0.1-0.4,0.3-0.4,0.5c0,0.2,0.1,0.3,0.2,0.4
			c0.1,0.1,0.3,0.1,0.6,0.2c0.2,0,0.5,0.1,0.8,0.1s0.6,0,1,0.1c0.3,0,0.6,0.1,1,0.1c0.3,0.1,0.6,0.2,0.8,0.3s0.4,0.3,0.6,0.6
			c0.1,0.2,0.2,0.5,0.2,0.9c0,0.4-0.1,0.7-0.3,1c-0.2,0.3-0.4,0.6-0.8,0.9c-0.3,0.3-0.7,0.5-1.2,0.6c-0.5,0.2-1,0.2-1.6,0.2
			c-0.6,0-1.1-0.1-1.6-0.2c-0.4-0.1-0.8-0.3-1.1-0.5c-0.3-0.2-0.5-0.4-0.7-0.7c-0.1-0.3-0.2-0.5-0.2-0.8c0-0.4,0.1-0.7,0.3-0.9
			c0.2-0.3,0.5-0.5,0.9-0.6c-0.2-0.1-0.4-0.3-0.5-0.4c-0.1-0.2-0.2-0.4-0.2-0.7c0-0.1,0-0.2,0.1-0.4c0-0.1,0.1-0.3,0.2-0.4
			s0.2-0.2,0.3-0.4c0.1-0.1,0.3-0.2,0.5-0.3c-0.4-0.2-0.7-0.5-0.9-0.9c-0.2-0.4-0.3-0.8-0.3-1.3c0-0.4,0.1-0.7,0.2-1.1
			c0.2-0.3,0.4-0.6,0.7-0.8c0.3-0.2,0.6-0.4,1-0.5s0.8-0.2,1.3-0.2c0.3,0,0.7,0,1,0.1c0.3,0.1,0.6,0.2,0.8,0.3H-159z M-156,395.7
			c0.2-0.2,0.3-0.3,0.5-0.4c0.2-0.1,0.4-0.3,0.6-0.3s0.4-0.2,0.6-0.2c0.2-0.1,0.5-0.1,0.7-0.1c0.4,0,0.8,0.1,1.2,0.2
			c0.3,0.1,0.6,0.4,0.8,0.6s0.4,0.6,0.5,1c0.1,0.4,0.2,0.8,0.2,1.2v5.1h-1.9v-5.1c0-0.5-0.1-0.9-0.3-1.1s-0.6-0.4-1-0.4
			c-0.3,0-0.6,0.1-0.9,0.2c-0.3,0.1-0.6,0.4-0.8,0.6v5.8h-1.9v-8h1.2c0.2,0,0.4,0.1,0.5,0.3L-156,395.7z M-143.3,394.7v8h-1.9v-8
			H-143.3z M-143,392.4c0,0.2,0,0.3-0.1,0.5c-0.1,0.1-0.2,0.3-0.3,0.4c-0.1,0.1-0.2,0.2-0.4,0.3c-0.1,0.1-0.3,0.1-0.5,0.1
			c-0.2,0-0.3,0-0.5-0.1c-0.1-0.1-0.3-0.2-0.4-0.3c-0.1-0.1-0.2-0.2-0.3-0.4c-0.1-0.1-0.1-0.3-0.1-0.5c0-0.2,0-0.3,0.1-0.5
			c0.1-0.1,0.2-0.3,0.3-0.4c0.1-0.1,0.2-0.2,0.4-0.3c0.1-0.1,0.3-0.1,0.5-0.1c0.2,0,0.3,0,0.5,0.1c0.1,0.1,0.3,0.2,0.4,0.3
			s0.2,0.2,0.3,0.4C-143.1,392.1-143,392.3-143,392.4L-143,392.4z M-139.6,395.7c0.2-0.2,0.3-0.3,0.5-0.4c0.2-0.1,0.4-0.3,0.6-0.3
			c0.2-0.1,0.4-0.2,0.6-0.2c0.2-0.1,0.5-0.1,0.7-0.1c0.4,0,0.8,0.1,1.2,0.2c0.3,0.1,0.6,0.4,0.8,0.6c0.2,0.3,0.4,0.6,0.5,1
			c0.1,0.4,0.2,0.8,0.2,1.2v5.1h-1.9v-5.1c0-0.5-0.1-0.9-0.3-1.1s-0.6-0.4-1-0.4c-0.3,0-0.6,0.1-0.9,0.2c-0.3,0.1-0.6,0.4-0.8,0.6
			v5.8h-1.9v-8h1.2c0.2,0,0.4,0.1,0.5,0.3L-139.6,395.7z M-117.5,394.7l-2.5,8h-1.5c-0.2,0-0.3-0.1-0.4-0.3l-1.4-4.6
			c0-0.2-0.1-0.3-0.1-0.5c0-0.2-0.1-0.3-0.1-0.5c0,0.2-0.1,0.3-0.1,0.5c0,0.2-0.1,0.3-0.1,0.5l-1.4,4.6c-0.1,0.2-0.2,0.3-0.4,0.3
			h-1.5l-2.5-8h1.5c0.1,0,0.3,0,0.4,0.1c0.1,0.1,0.2,0.2,0.2,0.3l1.1,4.2c0.1,0.2,0.1,0.5,0.2,0.7c0,0.2,0.1,0.4,0.1,0.7
			c0.1-0.2,0.1-0.4,0.2-0.7c0.1-0.2,0.1-0.4,0.2-0.7l1.3-4.3c0-0.1,0.1-0.2,0.2-0.3s0.2-0.1,0.3-0.1h0.8c0.1,0,0.2,0,0.3,0.1
			c0.1,0.1,0.2,0.2,0.2,0.3l1.3,4.3c0.1,0.2,0.1,0.5,0.2,0.7c0.1,0.2,0.1,0.4,0.2,0.7c0.1-0.4,0.2-0.9,0.3-1.4l1.2-4.2
			c0-0.1,0.1-0.2,0.2-0.3c0.1-0.1,0.2-0.1,0.3-0.1H-117.5z M-114.4,394.7v8h-1.9v-8H-114.4z M-114.1,392.4c0,0.2,0,0.3-0.1,0.5
			c-0.1,0.1-0.2,0.3-0.3,0.4c-0.1,0.1-0.2,0.2-0.4,0.3c-0.1,0.1-0.3,0.1-0.5,0.1c-0.2,0-0.3,0-0.5-0.1c-0.1-0.1-0.3-0.2-0.4-0.3
			c-0.1-0.1-0.2-0.2-0.3-0.4c-0.1-0.1-0.1-0.3-0.1-0.5c0-0.2,0-0.3,0.1-0.5c0.1-0.1,0.2-0.3,0.3-0.4c0.1-0.1,0.2-0.2,0.4-0.3
			c0.1-0.1,0.3-0.1,0.5-0.1c0.2,0,0.3,0,0.5,0.1c0.1,0.1,0.3,0.2,0.4,0.3s0.2,0.2,0.3,0.4C-114.2,392.1-114.1,392.3-114.1,392.4
			L-114.1,392.4z M-109.8,402.8c-0.7,0-1.2-0.2-1.6-0.6c-0.4-0.4-0.6-0.9-0.6-1.6v-4.4h-0.8c-0.1,0-0.2,0-0.3-0.1s-0.1-0.2-0.1-0.3
			V395l1.3-0.2l0.4-2.2c0-0.1,0.1-0.2,0.1-0.2c0.1-0.1,0.2-0.1,0.3-0.1h1v2.5h2.1v1.4h-2.1v4.3c0,0.2,0.1,0.4,0.2,0.6
			s0.3,0.2,0.5,0.2c0.1,0,0.2,0,0.3,0c0.1,0,0.1-0.1,0.2-0.1c0.1,0,0.1-0.1,0.2-0.1s0.1,0,0.1,0c0.1,0,0.1,0,0.1,0
			c0,0,0.1,0.1,0.1,0.1l0.6,0.9c-0.3,0.2-0.6,0.4-1,0.5S-109.4,402.8-109.8,402.8L-109.8,402.8z M-104.8,395.6
			c0.3-0.3,0.7-0.5,1-0.7c0.4-0.2,0.8-0.3,1.3-0.3c0.4,0,0.8,0.1,1.2,0.2c0.3,0.1,0.6,0.4,0.8,0.6s0.4,0.6,0.5,1
			c0.1,0.4,0.2,0.8,0.2,1.2v5.1h-1.9v-5.1c0-0.5-0.1-0.9-0.3-1.1s-0.6-0.4-1-0.4c-0.3,0-0.6,0.1-0.9,0.2c-0.3,0.1-0.6,0.4-0.8,0.6
			v5.8h-1.9v-11.5h1.9V395.6z M-88,393.7c-0.1,0.1-0.2,0.2-0.2,0.3s-0.2,0.1-0.3,0.1c-0.1,0-0.2,0-0.4-0.1s-0.3-0.2-0.5-0.3
			c-0.2-0.1-0.4-0.2-0.6-0.3s-0.5-0.1-0.8-0.1c-0.5,0-0.9,0.1-1.1,0.3s-0.4,0.5-0.4,0.8c0,0.2,0.1,0.4,0.2,0.6
			c0.1,0.1,0.3,0.3,0.6,0.4c0.2,0.1,0.5,0.2,0.8,0.3c0.3,0.1,0.6,0.2,0.9,0.3s0.6,0.2,0.9,0.4c0.3,0.1,0.6,0.3,0.8,0.6
			c0.2,0.2,0.4,0.5,0.6,0.8s0.2,0.7,0.2,1.2c0,0.5-0.1,1-0.3,1.5c-0.2,0.5-0.4,0.9-0.8,1.2s-0.8,0.6-1.3,0.8s-1.1,0.3-1.7,0.3
			c-0.4,0-0.7,0-1.1-0.1s-0.7-0.2-1.1-0.3s-0.7-0.3-1-0.5c-0.3-0.2-0.6-0.4-0.8-0.6l0.8-1.2c0.1-0.1,0.1-0.2,0.2-0.2
			c0.1-0.1,0.2-0.1,0.3-0.1c0.2,0,0.3,0,0.5,0.1c0.2,0.1,0.3,0.2,0.5,0.3c0.2,0.1,0.4,0.2,0.7,0.3c0.3,0.1,0.6,0.1,0.9,0.1
			c0.5,0,0.8-0.1,1.1-0.3s0.4-0.5,0.4-1c0-0.3-0.1-0.5-0.2-0.6s-0.3-0.3-0.6-0.4c-0.2-0.1-0.5-0.2-0.8-0.3c-0.3-0.1-0.6-0.2-0.9-0.3
			c-0.3-0.1-0.6-0.2-0.9-0.4c-0.3-0.1-0.6-0.3-0.8-0.6s-0.4-0.5-0.6-0.9c-0.1-0.4-0.2-0.8-0.2-1.3c0-0.4,0.1-0.8,0.3-1.2
			c0.2-0.4,0.4-0.8,0.8-1.1c0.3-0.3,0.7-0.6,1.2-0.8c0.5-0.2,1-0.3,1.7-0.3c0.3,0,0.7,0,1,0.1c0.3,0.1,0.6,0.1,0.9,0.2
			c0.3,0.1,0.6,0.2,0.8,0.4s0.5,0.3,0.7,0.5L-88,393.7z M-83.5,391.1v11.6h-2.4v-11.6H-83.5z M-77.7,399.4c-0.5,0-0.9,0.1-1.2,0.1
			c-0.3,0.1-0.6,0.1-0.7,0.2c-0.2,0.1-0.3,0.2-0.4,0.3s-0.1,0.2-0.1,0.4c0,0.3,0.1,0.5,0.2,0.6c0.1,0.1,0.4,0.2,0.7,0.2
			c0.3,0,0.6-0.1,0.8-0.2c0.2-0.1,0.5-0.3,0.7-0.5V399.4z M-82.1,395.8c0.5-0.4,1-0.7,1.6-1c0.6-0.2,1.2-0.3,1.9-0.3
			c0.5,0,0.9,0.1,1.3,0.2c0.4,0.2,0.7,0.4,1,0.7s0.5,0.6,0.6,1s0.2,0.8,0.2,1.3v5h-1.1c-0.2,0-0.4,0-0.5-0.1
			c-0.1-0.1-0.2-0.2-0.3-0.4l-0.2-0.4c-0.2,0.2-0.4,0.3-0.6,0.4c-0.2,0.1-0.4,0.2-0.6,0.3c-0.2,0.1-0.4,0.2-0.6,0.2
			c-0.2,0-0.5,0.1-0.7,0.1c-0.4,0-0.7,0-1-0.1s-0.6-0.2-0.8-0.4c-0.2-0.2-0.4-0.4-0.5-0.7c-0.1-0.3-0.2-0.6-0.2-1
			c0-0.3,0.1-0.6,0.2-0.9s0.4-0.6,0.8-0.8c0.4-0.2,0.8-0.5,1.4-0.6c0.6-0.2,1.4-0.3,2.3-0.3v-0.3c0-0.5-0.1-0.8-0.3-1
			c-0.2-0.2-0.5-0.3-0.8-0.3c-0.3,0-0.5,0-0.7,0.1c-0.2,0.1-0.3,0.1-0.5,0.2c-0.1,0.1-0.3,0.1-0.4,0.2c-0.1,0.1-0.3,0.1-0.5,0.1
			c-0.2,0-0.3,0-0.4-0.1c-0.1-0.1-0.2-0.2-0.3-0.3L-82.1,395.8z M-68,396.6c-0.1,0.1-0.1,0.2-0.2,0.2s-0.2,0.1-0.3,0.1
			c-0.1,0-0.2,0-0.3-0.1c-0.1-0.1-0.2-0.1-0.3-0.2c-0.1-0.1-0.3-0.1-0.4-0.2s-0.4-0.1-0.6-0.1c-0.3,0-0.5,0.1-0.8,0.2
			c-0.2,0.1-0.4,0.3-0.5,0.5c-0.1,0.2-0.2,0.4-0.3,0.7s-0.1,0.6-0.1,1c0,0.8,0.1,1.4,0.4,1.8s0.7,0.6,1.2,0.6c0.3,0,0.5,0,0.7-0.1
			c0.2-0.1,0.3-0.1,0.4-0.2c0.1-0.1,0.2-0.2,0.3-0.2c0.1-0.1,0.2-0.1,0.4-0.1c0.2,0,0.3,0.1,0.4,0.2l0.7,0.9
			c-0.2,0.3-0.5,0.5-0.8,0.7s-0.6,0.3-0.8,0.4c-0.3,0.1-0.6,0.2-0.9,0.2c-0.3,0-0.6,0.1-0.8,0.1c-0.5,0-1-0.1-1.4-0.3
			c-0.4-0.2-0.8-0.5-1.2-0.8c-0.3-0.4-0.6-0.8-0.8-1.3s-0.3-1.1-0.3-1.8c0-0.6,0.1-1.1,0.3-1.6c0.2-0.5,0.4-0.9,0.8-1.3
			c0.3-0.4,0.8-0.7,1.3-0.9c0.5-0.2,1.1-0.3,1.7-0.3c0.6,0,1.2,0.1,1.7,0.3c0.5,0.2,0.9,0.5,1.3,0.9L-68,396.6z M-63.9,391.1v6.5
			h0.4c0.1,0,0.3,0,0.3-0.1s0.2-0.1,0.2-0.2l1.5-2.3c0.1-0.1,0.2-0.2,0.3-0.3s0.3-0.1,0.5-0.1h2.2l-2.1,2.9
			c-0.2,0.3-0.4,0.5-0.7,0.6c0.1,0.1,0.2,0.2,0.3,0.3c0.1,0.1,0.2,0.2,0.3,0.4l2.3,3.8h-2.2c-0.2,0-0.3,0-0.5-0.1s-0.2-0.2-0.3-0.3
			l-1.5-2.8c-0.1-0.1-0.1-0.2-0.2-0.3c-0.1,0-0.2-0.1-0.3-0.1h-0.5v3.6h-2.4v-11.6H-63.9z"/>
		<g id="Slack-Logo-Mark-Color" transform="translate(10.000000, 9.000000)" sketch:type="MSShapeGroup">
			<path id="Fill-1" fill="#E1A749" d="M-204.7,378.4c-0.3-1-1.4-1.6-2.5-1.3c-1,0.3-1.6,1.4-1.3,2.5l5.1,15.6
				c0.3,1,1.4,1.5,2.4,1.2c1-0.3,1.7-1.4,1.3-2.4C-199.7,393.9-204.7,378.4-204.7,378.4"/>
			<path id="Fill-3" fill="#40AE86" d="M-212.6,380.9c-0.3-1-1.4-1.6-2.5-1.3c-1,0.3-1.6,1.4-1.3,2.5l5.1,15.6
				c0.3,1,1.4,1.5,2.4,1.2c1-0.3,1.7-1.4,1.3-2.4C-207.5,396.5-212.6,380.9-212.6,380.9"/>
			<path id="Fill-5" fill="#CC245C" d="M-198.4,391.3c1-0.3,1.6-1.4,1.3-2.5c-0.3-1-1.4-1.6-2.5-1.3l-15.6,5.1
				c-1,0.3-1.5,1.4-1.2,2.4c0.3,1,1.4,1.7,2.4,1.3C-213.9,396.3-198.4,391.3-198.4,391.3"/>
			<path id="Fill-6" fill="#452546" d="M-211.9,395.7c1-0.3,2.3-0.8,3.7-1.2c-0.3-1-0.8-2.3-1.2-3.7l-3.7,1.2L-211.9,395.7"/>
			<path id="Fill-7" fill="#B7272E" d="M-204.1,393.1c1.4-0.5,2.7-0.9,3.7-1.2c-0.3-1-0.8-2.3-1.2-3.7l-3.7,1.2L-204.1,393.1"/>
			<path id="Fill-9" fill="#75C3CA" d="M-200.9,383.4c1-0.3,1.6-1.4,1.3-2.5c-0.3-1-1.4-1.6-2.5-1.3l-15.6,5.1
				c-1,0.3-1.5,1.4-1.2,2.4c0.3,1,1.4,1.7,2.4,1.3C-216.5,388.5-200.9,383.4-200.9,383.4"/>
			<path id="Fill-11" fill="#2B8A74" d="M-214.5,387.8c1-0.3,2.3-0.8,3.7-1.2c-0.5-1.4-0.9-2.7-1.2-3.7l-3.7,1.2L-214.5,387.8"/>
			<path id="Fill-12" fill="#637F3D" d="M-206.6,385.3c1.4-0.5,2.7-0.9,3.7-1.2c-0.5-1.4-0.9-2.7-1.2-3.7l-3.7,1.2L-206.6,385.3"/>
		</g>
	</g>
</g>
</svg>
